<svg xmlns="http://www.w3.org/2000/svg" width="25" height="15" viewBox="0 0 25 15">
    <path d="M12.5 15C5.6 15 0 7.5 0 7.5S5.6 0 12.5 0 25 7.5 25 7.5 19.4 15 12.5 15zm0-13.99C8.91 1.01 6 3.91 6 7.5c0 3.58 2.91 6.49 6.5 6.49S19 11.08 19 7.5c0-3.59-2.91-6.49-6.5-6.49zm0 10.99C10.01 12 8 9.99 8 7.5S10.01 3 12.5 3 17 5.01 17 7.5 14.99 12 12.5 12zm3.44-5.1c-.18.63-.75 1.1-1.44 1.1-.83 0-1.5-.67-1.5-1.5a1.498 1.498 0 0 1 2.04-1.4A3.51 3.51 0 0 0 12.5 4C10.57 4 9 5.57 9 7.5s1.57 3.5 3.5 3.5S16 9.43 16 7.5c0-.21-.03-.4-.06-.6z" fill="#FFF"/>
</svg>
