<?xml version="1.0" standalone="no"?>
<!DOCTYPE svg PUBLIC "-//W3C//DTD SVG 20010904//EN"
 "http://www.w3.org/TR/2001/REC-SVG-20010904/DTD/svg10.dtd">
<svg version="1.0" xmlns="http://www.w3.org/2000/svg"
 width="260.000000pt" height="260.000000pt" viewBox="0 0 260.000000 260.000000"
 preserveAspectRatio="xMidYMid meet">
<metadata>
Created by potrace 1.11, written by Peter Selinger 2001-2013
</metadata>
<g transform="translate(0.000000,260.000000) scale(0.100000,-0.100000)"
fill="#000000" stroke="none">
<path d="M1297 2483 c-9 -31 -16 -68 -23 -109 -3 -21 -19 -102 -34 -179 -16
-77 -31 -153 -34 -170 -13 -68 -18 -93 -33 -165 -8 -41 -17 -86 -19 -100 -8
-48 -16 -85 -20 -92 -4 -6 -82 28 -279 121 -33 16 -61 25 -63 22 -1 -4 34 -81
78 -171 45 -89 77 -166 73 -170 -7 -6 -220 -62 -288 -76 -25 -5 -60 -13 -83
-18 -89 -23 -231 -58 -249 -62 -12 -2 -32 -8 -44 -12 -21 -8 -20 -9 12 -15 50
-9 652 -157 657 -161 2 -2 -35 -80 -82 -173 -47 -93 -86 -172 -86 -176 0 -3
64 23 143 59 171 79 217 98 222 92 2 -2 6 -17 9 -33 3 -17 30 -167 61 -335 30
-168 59 -330 65 -360 11 -56 17 -93 20 -120 2 -14 9 13 24 90 4 19 29 145 56
280 27 135 51 257 54 272 13 72 39 194 42 200 3 4 21 -2 42 -12 20 -10 57 -27
82 -38 25 -11 86 -38 137 -61 50 -23 94 -41 97 -41 4 0 -34 78 -84 174 l-90
173 112 31 c62 16 165 43 228 60 258 67 330 87 330 92 0 6 -121 37 -175 45
-16 3 -41 9 -55 14 -14 5 -88 23 -165 41 -77 18 -158 37 -180 43 -22 6 -43 11
-47 13 -5 1 -15 2 -23 3 -8 0 -15 6 -15 11 0 6 37 85 81 176 45 91 79 167 76
170 -3 3 -13 1 -24 -5 -71 -41 -333 -155 -333 -145 0 3 -9 52 -21 107 -11 56
-23 113 -25 127 -3 14 -12 59 -20 100 -9 41 -18 89 -21 105 -3 17 -18 91 -33
165 -16 74 -31 155 -35 180 -8 52 -11 59 -18 33z"/>
</g>
</svg>
