<svg version="1" xmlns="http://www.w3.org/2000/svg" width="346.667" height="346.667" viewBox="0 0 260.000000 260.000000"><path d="M129.7 11.7c-.9 3.1-1.6 6.8-2.3 10.9-.3 2.1-1.9 10.2-3.4 17.9-1.6 7.7-3.1 15.3-3.4 17-1.3 6.8-1.8 9.3-3.3 16.5-.8 4.1-1.7 8.6-1.9 10-.8 4.8-1.6 8.5-2 9.2-.4.6-8.2-2.8-27.9-12.1-3.3-1.6-6.1-2.5-6.3-2.2-.1.4 3.4 8.1 7.8 17.1 4.5 8.9 7.7 16.6 7.3 17-.7.6-22 6.2-28.8 7.6-2.5.5-6 1.3-8.3 1.8-8.9 2.3-23.1 5.8-24.9 6.2-1.2.2-3.2.8-4.4 1.2-2.1.8-2 .9 1.2 1.5 5 .9 65.2 15.7 65.7 16.1.2.2-3.5 8-8.2 17.3-4.7 9.3-8.6 17.2-8.6 17.6 0 .3 6.4-2.3 14.3-5.9 17.1-7.9 21.7-9.8 22.2-9.2.2.2.6 1.7.9 3.3.3 1.7 3 16.7 6.1 33.5 3 16.8 5.9 33 6.5 36 1.1 5.6 1.7 9.3 2 12 .2 1.4.9-1.3 2.4-9 .4-1.9 2.9-14.5 5.6-28 2.7-13.5 5.1-25.7 5.4-27.2 1.3-7.2 3.9-19.4 4.2-20 .3-.4 2.1.2 4.2 1.2 2 1 5.7 2.7 8.2 3.8 2.5 1.1 8.6 3.8 13.7 6.1 5 2.3 9.4 4.1 9.7 4.1.4 0-3.4-7.8-8.4-17.4l-9-17.3 11.2-3.1c6.2-1.6 16.5-4.3 22.8-6 25.8-6.7 33-8.7 33-9.2 0-.6-12.1-3.7-17.5-4.5-1.6-.3-4.1-.9-5.5-1.4-1.4-.5-8.8-2.3-16.5-4.1-7.7-1.8-15.8-3.7-18-4.3-2.2-.6-4.3-1.1-4.7-1.3-.5-.1-1.5-.2-2.3-.3-.8 0-1.5-.6-1.5-1.1 0-.6 3.7-8.5 8.1-17.6 4.5-9.1 7.9-16.7 7.6-17-.3-.3-1.3-.1-2.4.5C173.2 83 147 94.4 147 93.4c0-.3-.9-5.2-2.1-10.7-1.1-5.6-2.3-11.3-2.5-12.7-.3-1.4-1.2-5.9-2-10-.9-4.1-1.8-8.9-2.1-10.5-.3-1.7-1.8-9.1-3.3-16.5-1.6-7.4-3.1-15.5-3.5-18-.8-5.2-1.1-5.9-1.8-3.3z"/></svg>