<?xml version="1.0" encoding="utf-8"?>
<svg xmlns="http://www.w3.org/2000/svg"
	xmlns:xlink="http://www.w3.org/1999/xlink"
	width="25px" height="15px" viewBox="0 0 25 15">
<path fillRule="evenodd" d="M 12.5 15C 5.6 15-0 7.5-0 7.5-0 7.5 5.6-0 12.5-0 19.4-0 25 7.5 25 7.5 25 7.5 19.4 15 12.5 15ZM 12.5 1.01C 8.91 1.01 6 3.91 6 7.5 6 11.08 8.91 13.99 12.5 13.99 16.09 13.99 19 11.08 19 7.5 19 3.91 16.09 1.01 12.5 1.01ZM 12.5 12C 10.01 12 8 9.99 8 7.5 8 5.01 10.01 3 12.5 3 14.99 3 17 5.01 17 7.5 17 9.99 14.99 12 12.5 12ZM 15.94 6.9C 15.76 7.53 15.19 8 14.5 8 13.67 8 13 7.33 13 6.5 13 5.67 13.67 5 14.5 5 14.69 5 14.87 5.04 15.04 5.1 14.4 4.43 13.5 4 12.5 4 10.57 4 9 5.57 9 7.5 9 9.43 10.57 11 12.5 11 14.43 11 16 9.43 16 7.5 16 7.29 15.97 7.1 15.94 6.9Z" fill="rgb(255,255,255)"/></svg>