<?xml version="1.0" encoding="utf-8"?>
<svg xmlns="http://www.w3.org/2000/svg"
	xmlns:xlink="http://www.w3.org/1999/xlink"
	width="16px" height="16px" viewBox="0 0 16 16">
<path fillRule="evenodd" d="M 9.51 13C 8.28 13 7.14 12.64 6.16 12.04 6.16 12.04 2.49 15.72 2.49 15.72 2.49 15.72 0.78 14.01 0.78 14.01 0.78 14.01 4.36 10.43 4.36 10.43 3.53 9.33 3.01 7.98 3.01 6.5 3.01 2.91 5.92-0 9.51-0 13.1-0 16.01 2.91 16.01 6.5 16.01 10.09 13.1 13 9.51 13ZM 9.5 1.99C 7.01 1.99 5 4.01 5 6.49 5 8.98 7.01 10.99 9.5 10.99 11.98 10.99 14 8.98 14 6.49 14 4.01 11.98 1.99 9.5 1.99Z" fill="rgb(255,255,255)"/></svg>